adventpro-Regular.ufo
<glyph name="quotedbl" format="1">
  <advance width="266"/>
  <unicode hex="0022"/>
  <outline>
    <contour>
      <point x="166" y="701" type="line"/>
      <point x="166" y="719"/>
      <point x="187" y="736"/>
      <point x="213" y="736"/>
      <point x="234" y="719"/>
      <point x="234" y="701" type="qcurve"/>
      <point x="220" y="586" type="line"/>
      <point x="180" y="586" type="line"/>
    </contour>
    <contour>
      <point x="31" y="701" type="line"/>
      <point x="31" y="719"/>
      <point x="52" y="736"/>
      <point x="78" y="736"/>
      <point x="99" y="719"/>
      <point x="99" y="701" type="qcurve"/>
      <point x="84" y="586" type="line"/>
      <point x="45" y="586" type="line"/>
    </contour>
  </outline>
</glyph>
<glyph name="eight" format="1">
  <advance width="481"/>
  <unicode hex="0038"/>
  <outline>
    <contour>
      <point x="240" y="707" type="qcurve" smooth="yes"/>
      <point x="314" y="707"/>
      <point x="365" y="656" type="qcurve" smooth="yes"/>
      <point x="391" y="630"/>
      <point x="415" y="569"/>
      <point x="415" y="531" type="qcurve" smooth="yes"/>
      <point x="415" y="467"/>
      <point x="380" y="424" type="qcurve" smooth="yes"/>
      <point x="372" y="414"/>
      <point x="351" y="395"/>
      <point x="339" y="387" type="qcurve"/>
      <point x="356" y="377"/>
      <point x="394" y="346"/>
      <point x="410" y="326" type="qcurve" smooth="yes"/>
      <point x="430" y="299"/>
      <point x="452" y="236"/>
      <point x="452" y="200" type="qcurve" smooth="yes"/>
      <point x="452" y="157"/>
      <point x="421" y="80"/>
      <point x="390" y="50" type="qcurve" smooth="yes"/>
      <point x="328" y="-12"/>
      <point x="239" y="-12" type="qcurve" smooth="yes"/>
      <point x="149" y="-12"/>
      <point x="89" y="50" type="qcurve"/>
      <point x="58" y="80"/>
      <point x="27" y="157"/>
      <point x="27" y="200" type="qcurve" smooth="yes"/>
      <point x="27" y="238"/>
      <point x="52" y="306"/>
      <point x="74" y="333" type="qcurve" smooth="yes"/>
      <point x="88" y="350"/>
      <point x="121" y="378"/>
      <point x="140" y="388" type="qcurve"/>
      <point x="117" y="403"/>
      <point x="101" y="425" type="qcurve" smooth="yes"/>
      <point x="84" y="446"/>
      <point x="66" y="500"/>
      <point x="66" y="531" type="qcurve" smooth="yes"/>
      <point x="66" y="603"/>
      <point x="116" y="656" type="qcurve"/>
      <point x="167" y="707"/>
    </contour>
    <contour>
      <point x="239" y="411" type="qcurve" smooth="yes"/>
      <point x="267" y="411"/>
      <point x="315" y="434"/>
      <point x="331" y="453" type="qcurve" smooth="yes"/>
      <point x="345" y="469"/>
      <point x="360" y="510"/>
      <point x="360" y="532" type="qcurve" smooth="yes"/>
      <point x="360" y="566"/>
      <point x="327" y="621"/>
      <point x="273" y="654"/>
      <point x="239" y="654" type="qcurve" smooth="yes"/>
      <point x="206" y="654"/>
      <point x="151" y="621"/>
      <point x="118" y="566"/>
      <point x="118" y="532" type="qcurve" smooth="yes"/>
      <point x="118" y="486"/>
      <point x="148" y="453" type="qcurve" smooth="yes"/>
      <point x="165" y="434"/>
      <point x="212" y="411"/>
    </contour>
    <contour>
      <point x="239" y="44" type="qcurve" smooth="yes"/>
      <point x="283" y="44"/>
      <point x="354" y="86"/>
      <point x="396" y="157"/>
      <point x="396" y="200" type="qcurve" smooth="yes"/>
      <point x="396" y="226"/>
      <point x="380" y="274"/>
      <point x="366" y="294" type="qcurve" smooth="yes"/>
      <point x="344" y="323"/>
      <point x="278" y="356"/>
      <point x="239" y="356" type="qcurve" smooth="yes"/>
      <point x="203" y="356"/>
      <point x="140" y="325"/>
      <point x="118" y="299" type="qcurve" smooth="yes"/>
      <point x="102" y="280"/>
      <point x="83" y="229"/>
      <point x="83" y="200" type="qcurve" smooth="yes"/>
      <point x="83" y="157"/>
      <point x="125" y="86"/>
      <point x="196" y="44"/>
    </contour>
  </outline>
</glyph>
<glyph name="colon" format="1">
  <advance width="143"/>
  <unicode hex="003A"/>
  <outline>
    <contour>
      <point x="103" y="143" type="qcurve" smooth="yes"/>
      <point x="103" y="129"/>
      <point x="83" y="110"/>
      <point x="70" y="110" type="qcurve" smooth="yes"/>
      <point x="56" y="110"/>
      <point x="36" y="129"/>
      <point x="36" y="143" type="qcurve" smooth="yes"/>
      <point x="36" y="157"/>
      <point x="56" y="176"/>
      <point x="70" y="176" type="qcurve" smooth="yes"/>
      <point x="83" y="176"/>
      <point x="103" y="157"/>
    </contour>
    <contour>
      <point x="103" y="384" type="qcurve" smooth="yes"/>
      <point x="103" y="370"/>
      <point x="83" y="351"/>
      <point x="70" y="351" type="qcurve" smooth="yes"/>
      <point x="56" y="351"/>
      <point x="36" y="370"/>
      <point x="36" y="384" type="qcurve" smooth="yes"/>
      <point x="36" y="398"/>
      <point x="56" y="417"/>
      <point x="70" y="417" type="qcurve" smooth="yes"/>
      <point x="83" y="417"/>
      <point x="103" y="398"/>
    </contour>
  </outline>
</glyph>
<glyph name="B" format="1">
  <advance width="503"/>
  <unicode hex="0042"/>
  <outline>
    <contour>
      <point x="261" y="698" type="line" smooth="yes"/>
      <point x="345" y="698"/>
      <point x="437" y="612"/>
      <point x="437" y="526" type="qcurve" smooth="yes"/>
      <point x="437" y="481"/>
      <point x="403" y="415"/>
      <point x="370" y="393" type="qcurve"/>
      <point x="370" y="389" type="line"/>
      <point x="414" y="370"/>
      <point x="473" y="280"/>
      <point x="473" y="208" type="qcurve" smooth="yes"/>
      <point x="473" y="115"/>
      <point x="375" y="0"/>
      <point x="271" y="0" type="qcurve" smooth="yes"/>
      <point x="41" y="0" type="line"/>
      <point x="41" y="698" type="line"/>
    </contour>
    <contour>
      <point x="260" y="411" type="line" smooth="yes"/>
      <point x="301" y="411"/>
      <point x="353" y="440"/>
      <point x="379" y="493"/>
      <point x="379" y="528" type="qcurve" smooth="yes"/>
      <point x="379" y="587"/>
      <point x="316" y="645"/>
      <point x="253" y="645" type="qcurve" smooth="yes"/>
      <point x="97" y="645" type="line"/>
      <point x="97" y="411" type="line"/>
    </contour>
    <contour>
      <point x="269" y="53" type="line" smooth="yes"/>
      <point x="317" y="53"/>
      <point x="381" y="88"/>
      <point x="413" y="159"/>
      <point x="413" y="212" type="qcurve" smooth="yes"/>
      <point x="413" y="282"/>
      <point x="337" y="356"/>
      <point x="285" y="356" type="qcurve" smooth="yes"/>
      <point x="97" y="356" type="line"/>
      <point x="97" y="53" type="line"/>
    </contour>
  </outline>
</glyph>
<glyph name="Q" format="1">
  <advance width="490"/>
  <unicode hex="0051"/>
  <outline>
    <contour>
      <point x="270" y="50" type="line" smooth="yes"/>
      <point x="270" y="9"/>
      <point x="299" y="-40"/>
      <point x="355" y="-61"/>
      <point x="395" y="-61" type="qcurve"/>
      <point x="389" y="-107" type="line"/>
      <point x="331" y="-107"/>
      <point x="253" y="-75"/>
      <point x="214" y="-5"/>
      <point x="214" y="51" type="qcurve" smooth="yes"/>
      <point x="214" y="173" type="line"/>
      <point x="270" y="173" type="line"/>
    </contour>
    <component base="O"/>
  </outline>
</glyph>
<glyph name="U" format="1">
  <advance width="496"/>
  <unicode hex="0055"/>
    <anchor name="top" x="248" y="735"/>
    <anchor name="ogonek" x="247" y="0"/>
  <outline>
    <contour>
      <point x="456" y="185" type="line" smooth="yes"/>
      <point x="456" y="84"/>
      <point x="394" y="36" type="qcurve" smooth="yes"/>
      <point x="334" y="-11"/>
      <point x="248" y="-11" type="qcurve" smooth="yes"/>
      <point x="161" y="-11"/>
      <point x="99" y="36" type="qcurve"/>
      <point x="38" y="85"/>
      <point x="38" y="185" type="qcurve" smooth="yes"/>
      <point x="38" y="698" type="line"/>
      <point x="93" y="698" type="line"/>
      <point x="93" y="186" type="line" smooth="yes"/>
      <point x="93" y="111"/>
      <point x="141" y="74" type="qcurve" smooth="yes"/>
      <point x="181" y="42"/>
      <point x="247" y="42" type="qcurve" smooth="yes"/>
      <point x="283" y="42"/>
      <point x="342" y="61"/>
      <point x="362" y="81" type="qcurve" smooth="yes"/>
      <point x="380" y="100"/>
      <point x="401" y="152"/>
      <point x="401" y="186" type="qcurve" smooth="yes"/>
      <point x="401" y="698" type="line"/>
      <point x="456" y="698" type="line"/>
    </contour>
    <contour>
      <point x="248" y="735" type="move" name="top"/>
    </contour>
    <contour>
      <point x="247" y="0" type="move" name="ogonek"/>
    </contour>
  </outline>
</glyph>
<glyph name="backslash" format="1">
  <advance width="413"/>
  <unicode hex="005C"/>
  <outline>
    <contour>
      <point x="335" y="-113" type="line"/>
      <point x="16" y="815" type="line"/>
      <point x="72" y="815" type="line"/>
      <point x="396" y="-113" type="line"/>
    </contour>
  </outline>
</glyph>
<glyph name="bracketright" format="1">
  <advance width="224"/>
  <unicode hex="005D"/>
  <outline>
    <contour>
      <point x="20" y="-113" type="line"/>
      <point x="20" y="-69" type="line"/>
      <point x="125" y="-59" type="line"/>
      <point x="125" y="760" type="line"/>
      <point x="20" y="770" type="line"/>
      <point x="20" y="815" type="line"/>
      <point x="181" y="815" type="line"/>
      <point x="181" y="-113" type="line"/>
    </contour>
  </outline>
</glyph>
<glyph name="asciicircum" format="1">
  <advance width="266"/>
  <unicode hex="005E"/>
  <outline>
    <contour>
      <point x="263" y="770" type="line"/>
      <point x="224" y="733" type="line"/>
      <point x="135" y="821" type="line"/>
      <point x="42" y="730" type="line"/>
      <point x="3" y="769" type="line"/>
      <point x="135" y="897" type="line"/>
    </contour>
  </outline>
</glyph>
<glyph name="c" format="1">
  <advance width="380"/>
  <unicode hex="0063"/>
    <anchor name="bottom" x="190" y="0"/>
    <anchor name="top" x="190" y="545"/>
  <outline>
    <contour>
      <point x="333" y="430" type="line"/>
      <point x="297" y="447"/>
      <point x="207" y="461"/>
      <point x="175" y="453" type="qcurve" smooth="yes"/>
      <point x="153" y="448"/>
      <point x="115" y="418"/>
      <point x="103" y="394" type="qcurve" smooth="yes"/>
      <point x="94" y="377"/>
      <point x="84" y="332"/>
      <point x="84" y="305" type="qcurve" smooth="yes"/>
      <point x="84" y="185" type="line" smooth="yes"/>
      <point x="84" y="136"/>
      <point x="113" y="66"/>
      <point x="153" y="52" type="qcurve"/>
      <point x="177" y="42"/>
      <point x="240" y="40"/>
      <point x="300" y="47"/>
      <point x="339" y="55"/>
      <point x="339" y="55" type="qcurve"/>
      <point x="350" y="5" type="line"/>
      <point x="300" y="-8"/>
      <point x="186" y="-13"/>
      <point x="141" y="1" type="qcurve" smooth="yes"/>
      <point x="90" y="18"/>
      <point x="29" y="100"/>
      <point x="29" y="173" type="qcurve" smooth="yes"/>
      <point x="29" y="318" type="line"/>
      <point x="31" y="351"/>
      <point x="43" y="402"/>
      <point x="56" y="426" type="qcurve"/>
      <point x="76" y="459"/>
      <point x="132" y="497"/>
      <point x="166" y="504" type="qcurve" smooth="yes"/>
      <point x="210" y="513"/>
      <point x="305" y="496"/>
      <point x="348" y="476" type="qcurve"/>
    </contour>
    <contour>
      <point x="190" y="0" type="move" name="bottom"/>
    </contour>
    <contour>
      <point x="190" y="545" type="move" name="top"/>
    </contour>
  </outline>
</glyph>
<glyph name="j" format="1">
  <advance width="199"/>
  <unicode hex="006A"/>
  <outline>
    <contour>
      <point x="149" y="-63" type="line" smooth="yes"/>
      <point x="149" y="-97"/>
      <point x="134" y="-147"/>
      <point x="117" y="-166" type="qcurve" smooth="yes"/>
      <point x="104" y="-180"/>
      <point x="68" y="-201"/>
      <point x="43" y="-209" type="qcurve"/>
      <point x="27" y="-166" type="line"/>
      <point x="43" y="-160"/>
      <point x="66" y="-142"/>
      <point x="74" y="-131" type="qcurve" smooth="yes"/>
      <point x="84" y="-117"/>
      <point x="93" y="-83"/>
      <point x="93" y="-62" type="qcurve" smooth="yes"/>
      <point x="93" y="447" type="line"/>
      <point x="29" y="447" type="line"/>
      <point x="29" y="499" type="line"/>
      <point x="149" y="499" type="line"/>
    </contour>
    <contour>
      <point x="157" y="674" type="qcurve" smooth="yes"/>
      <point x="157" y="661"/>
      <point x="137" y="641"/>
      <point x="123" y="641" type="qcurve" smooth="yes"/>
      <point x="109" y="641"/>
      <point x="89" y="661"/>
      <point x="89" y="674" type="qcurve" smooth="yes"/>
      <point x="89" y="688"/>
      <point x="109" y="707"/>
      <point x="123" y="707" type="qcurve" smooth="yes"/>
      <point x="137" y="707"/>
      <point x="157" y="688"/>
    </contour>
  </outline>
</glyph>
<glyph name="q" format="1">
  <advance width="440"/>
  <unicode hex="0071"/>
  <outline>
    <contour>
      <point x="343" y="62" type="line"/>
      <point x="332" y="42"/>
      <point x="288" y="8"/>
      <point x="232" y="-11"/>
      <point x="202" y="-11" type="qcurve" smooth="yes"/>
      <point x="118" y="-11"/>
      <point x="31" y="85"/>
      <point x="31" y="176" type="qcurve" smooth="yes"/>
      <point x="31" y="345" type="line" smooth="yes"/>
      <point x="31" y="425"/>
      <point x="119" y="513"/>
      <point x="201" y="509" type="qcurve" smooth="yes"/>
      <point x="225" y="508"/>
      <point x="274" y="495"/>
      <point x="321" y="470"/>
      <point x="343" y="452" type="qcurve"/>
      <point x="343" y="498" type="line"/>
      <point x="400" y="498" type="line"/>
      <point x="400" y="-211" type="line"/>
      <point x="343" y="-198" type="line"/>
    </contour>
    <contour>
      <point x="343" y="393" type="line"/>
      <point x="329" y="414"/>
      <point x="284" y="442"/>
      <point x="235" y="457"/>
      <point x="213" y="459" type="qcurve" smooth="yes"/>
      <point x="182" y="461"/>
      <point x="124" y="440"/>
      <point x="87" y="388"/>
      <point x="87" y="343" type="qcurve" smooth="yes"/>
      <point x="87" y="167" type="line" smooth="yes"/>
      <point x="87" y="105"/>
      <point x="148" y="41"/>
      <point x="205" y="41" type="qcurve" smooth="yes"/>
      <point x="234" y="41"/>
      <point x="284" y="58"/>
      <point x="322" y="92"/>
      <point x="343" y="141"/>
      <point x="343" y="173" type="qcurve" smooth="yes"/>
    </contour>
  </outline>
</glyph>
<glyph name="t" format="1">
  <advance width="240"/>
  <unicode hex="0074"/>
    <anchor name="bottom" x="120" y="0"/>
    <anchor name="top" x="120" y="735"/>
  <outline>
    <contour>
      <point x="95" y="132" type="line" smooth="yes"/>
      <point x="95" y="92"/>
      <point x="128" y="41"/>
      <point x="161" y="30" type="qcurve"/>
      <point x="144" y="-13" type="line"/>
      <point x="89" y="3"/>
      <point x="39" y="73"/>
      <point x="39" y="132" type="qcurve" smooth="yes"/>
      <point x="39" y="698" type="line"/>
      <point x="95" y="698" type="line"/>
      <point x="95" y="499" type="line"/>
      <point x="215" y="499" type="line"/>
      <point x="191" y="447" type="line"/>
      <point x="95" y="447" type="line"/>
    </contour>
    <contour>
      <point x="120" y="0" type="move" name="bottom"/>
    </contour>
    <contour>
      <point x="120" y="735" type="move" name="top"/>
    </contour>
  </outline>
</glyph>
<glyph name="y" format="1">
  <advance width="467"/>
  <unicode hex="0079"/>
    <anchor name="top" x="233" y="545"/>
  <outline>
    <contour>
      <point x="437" y="468" type="line"/>
      <point x="423" y="462"/>
      <point x="404" y="438"/>
      <point x="404" y="407" type="qcurve" smooth="yes"/>
      <point x="404" y="-62" type="line" smooth="yes"/>
      <point x="404" y="-96"/>
      <point x="390" y="-146"/>
      <point x="373" y="-165" type="qcurve" smooth="yes"/>
      <point x="360" y="-179"/>
      <point x="323" y="-200"/>
      <point x="299" y="-208" type="qcurve"/>
      <point x="283" y="-165" type="line"/>
      <point x="298" y="-159"/>
      <point x="321" y="-141"/>
      <point x="329" y="-130" type="qcurve" smooth="yes"/>
      <point x="348" y="-104"/>
      <point x="348" y="-61" type="qcurve" smooth="yes"/>
      <point x="348" y="50" type="line"/>
      <point x="323" y="20"/>
      <point x="247" y="-9"/>
      <point x="209" y="-9" type="qcurve" smooth="yes"/>
      <point x="168" y="-9"/>
      <point x="103" y="11"/>
      <point x="58" y="52"/>
      <point x="35" y="115"/>
      <point x="35" y="157" type="qcurve" smooth="yes"/>
      <point x="35" y="499" type="line"/>
      <point x="91" y="499" type="line"/>
      <point x="91" y="161" type="line" smooth="yes"/>
      <point x="91" y="115"/>
      <point x="130" y="64"/>
      <point x="190" y="44"/>
      <point x="221" y="44" type="qcurve" smooth="yes"/>
      <point x="257" y="44"/>
      <point x="314" y="79"/>
      <point x="348" y="138"/>
      <point x="348" y="173" type="qcurve" smooth="yes"/>
      <point x="348" y="408" type="line" smooth="yes"/>
      <point x="348" y="431"/>
      <point x="363" y="471"/>
      <point x="393" y="502"/>
      <point x="417" y="510" type="qcurve"/>
    </contour>
    <contour>
      <point x="233" y="545" type="move" name="top"/>
    </contour>
  </outline>
</glyph>
<glyph name="z" format="1">
  <advance width="427"/>
  <unicode hex="007A"/>
    <anchor name="top" x="213" y="545"/>
  <outline>
    <contour>
      <point x="377" y="499" type="line"/>
      <point x="377" y="450" type="line"/>
      <point x="100" y="51" type="line"/>
      <point x="398" y="51" type="line"/>
      <point x="398" y="0" type="line"/>
      <point x="31" y="0" type="line"/>
      <point x="31" y="50" type="line"/>
      <point x="305" y="449" type="line"/>
      <point x="40" y="449" type="line"/>
      <point x="40" y="499" type="line"/>
    </contour>
    <contour>
      <point x="213" y="545" type="move" name="top"/>
    </contour>
  </outline>
</glyph>
<glyph name="asciitilde" format="1">
  <advance width="266"/>
  <unicode hex="007E"/>
  <outline>
    <contour>
      <point x="288" y="305" type="line"/>
      <point x="265" y="280"/>
      <point x="223" y="261"/>
      <point x="204" y="262" type="qcurve"/>
      <point x="181" y="262"/>
      <point x="136" y="279"/>
      <point x="92" y="297"/>
      <point x="69" y="298" type="qcurve" smooth="yes"/>
      <point x="53" y="299"/>
      <point x="20" y="288"/>
      <point x="2" y="271" type="qcurve"/>
      <point x="-21" y="312" type="line"/>
      <point x="1" y="335"/>
      <point x="42" y="353"/>
      <point x="61" y="353" type="qcurve" smooth="yes"/>
      <point x="86" y="353"/>
      <point x="133" y="335"/>
      <point x="179" y="317"/>
      <point x="202" y="317" type="qcurve"/>
      <point x="221" y="318"/>
      <point x="251" y="333"/>
      <point x="263" y="346" type="qcurve"/>
    </contour>
  </outline>
</glyph>
<glyph name="sterling" format="1">
  <advance width="427"/>
  <unicode hex="00A3"/>
  <outline>
    <contour>
      <point x="113" y="53" type="line" smooth="yes"/>
      <point x="137" y="53"/>
      <point x="190" y="62"/>
      <point x="241" y="90"/>
      <point x="260" y="118" type="qcurve"/>
      <point x="279" y="143"/>
      <point x="290" y="202"/>
      <point x="272" y="263"/>
      <point x="247" y="291" type="qcurve" smooth="yes"/>
      <point x="237" y="303"/>
      <point x="216" y="327"/>
      <point x="205" y="339" type="qcurve"/>
      <point x="34" y="339" type="line"/>
      <point x="34" y="396" type="line"/>
      <point x="154" y="396" type="line"/>
      <point x="147" y="403"/>
      <point x="137" y="415"/>
      <point x="134" y="419" type="qcurve" smooth="yes"/>
      <point x="106" y="452"/>
      <point x="66" y="521"/>
      <point x="61" y="595"/>
      <point x="83" y="635" type="qcurve" smooth="yes"/>
      <point x="96" y="658"/>
      <point x="130" y="687"/>
      <point x="172" y="703"/>
      <point x="194" y="705" type="qcurve" smooth="yes"/>
      <point x="234" y="710"/>
      <point x="321" y="690"/>
      <point x="360" y="669" type="qcurve"/>
      <point x="341" y="620" type="line"/>
      <point x="310" y="639"/>
      <point x="243" y="658"/>
      <point x="212" y="654" type="qcurve"/>
      <point x="187" y="652"/>
      <point x="145" y="629"/>
      <point x="132" y="605" type="qcurve"/>
      <point x="111" y="571"/>
      <point x="142" y="493"/>
      <point x="176" y="453" type="qcurve" smooth="yes"/>
      <point x="184" y="444"/>
      <point x="210" y="413"/>
      <point x="226" y="396" type="qcurve"/>
      <point x="392" y="396" type="line"/>
      <point x="392" y="339" type="line"/>
      <point x="277" y="339" type="line"/>
      <point x="280" y="335"/>
      <point x="286" y="328"/>
      <point x="289" y="324" type="qcurve" smooth="yes"/>
      <point x="333" y="272"/>
      <point x="348" y="149"/>
      <point x="311" y="94" type="qcurve" smooth="yes"/>
      <point x="303" y="81"/>
      <point x="283" y="61"/>
      <point x="270" y="53" type="qcurve"/>
      <point x="392" y="53" type="line"/>
      <point x="392" y="0" type="line"/>
      <point x="34" y="0" type="line"/>
      <point x="34" y="53" type="line"/>
    </contour>
  </outline>
</glyph>
<glyph name="dieresis" format="1">
  <advance width="266"/>
  <unicode hex="00A8"/>
  <outline>
    <contour>
      <point x="54" y="740" type="qcurve" smooth="yes"/>
      <point x="68" y="740"/>
      <point x="88" y="720"/>
      <point x="88" y="706" type="qcurve" smooth="yes"/>
      <point x="88" y="692"/>
      <point x="68" y="673"/>
      <point x="54" y="673" type="qcurve" smooth="yes"/>
      <point x="41" y="673"/>
      <point x="21" y="692"/>
      <point x="21" y="706" type="qcurve" smooth="yes"/>
      <point x="21" y="720"/>
      <point x="41" y="740"/>
    </contour>
    <contour>
      <point x="212" y="740" type="qcurve" smooth="yes"/>
      <point x="226" y="740"/>
      <point x="245" y="720"/>
      <point x="245" y="706" type="qcurve" smooth="yes"/>
      <point x="245" y="692"/>
      <point x="226" y="673"/>
      <point x="212" y="673" type="qcurve" smooth="yes"/>
      <point x="198" y="673"/>
      <point x="179" y="692"/>
      <point x="179" y="706" type="qcurve" smooth="yes"/>
      <point x="179" y="720"/>
      <point x="198" y="740"/>
    </contour>
  </outline>
</glyph>
<glyph name="degree" format="1">
  <advance width="266"/>
  <unicode hex="00B0"/>
  <outline>
    <contour>
      <point x="279" y="563" type="qcurve" smooth="yes"/>
      <point x="279" y="523"/>
      <point x="240" y="457"/>
      <point x="174" y="418"/>
      <point x="134" y="418" type="qcurve" smooth="yes"/>
      <point x="94" y="418"/>
      <point x="27" y="457"/>
      <point x="-12" y="523"/>
      <point x="-12" y="563" type="qcurve" smooth="yes"/>
      <point x="-12" y="603"/>
      <point x="27" y="669"/>
      <point x="94" y="708"/>
      <point x="134" y="708" type="qcurve" smooth="yes"/>
      <point x="174" y="708"/>
      <point x="240" y="669"/>
      <point x="279" y="603"/>
    </contour>
    <contour>
      <point x="134" y="658" type="qcurve" smooth="yes"/>
      <point x="108" y="658"/>
      <point x="65" y="632"/>
      <point x="39" y="589"/>
      <point x="39" y="563" type="qcurve" smooth="yes"/>
      <point x="39" y="538"/>
      <point x="65" y="495"/>
      <point x="108" y="469"/>
      <point x="134" y="469" type="qcurve" smooth="yes"/>
      <point x="160" y="469"/>
      <point x="202" y="495"/>
      <point x="228" y="538"/>
      <point x="228" y="563" type="qcurve" smooth="yes"/>
      <point x="228" y="589"/>
      <point x="202" y="632"/>
      <point x="160" y="658"/>
    </contour>
  </outline>
</glyph>
<glyph name="mu" format="1">
  <advance width="464"/>
  <unicode hex="00B5"/>
  <outline>
    <contour>
      <point x="408" y="94" type="line" smooth="yes"/>
      <point x="408" y="73"/>
      <point x="422" y="42"/>
      <point x="435" y="26"/>
      <point x="435" y="26" type="qcurve"/>
      <point x="408" y="-6" type="line"/>
      <point x="408" y="-6"/>
      <point x="393" y="2"/>
      <point x="371" y="23"/>
      <point x="360" y="44" type="qcurve"/>
      <point x="350" y="27"/>
      <point x="315" y="1"/>
      <point x="271" y="-12"/>
      <point x="246" y="-12" type="qcurve" smooth="yes"/>
      <point x="198" y="-12"/>
      <point x="131" y="16"/>
      <point x="96" y="44"/>
      <point x="96" y="44" type="qcurve"/>
      <point x="96" y="-209" type="line"/>
      <point x="39" y="-200" type="line"/>
      <point x="39" y="499" type="line"/>
      <point x="96" y="499" type="line"/>
      <point x="96" y="105" type="line"/>
      <point x="102" y="99"/>
      <point x="126" y="79"/>
      <point x="164" y="57"/>
      <point x="216" y="43"/>
      <point x="249" y="43" type="qcurve" smooth="yes"/>
      <point x="300" y="43"/>
      <point x="351" y="97"/>
      <point x="351" y="153" type="qcurve" smooth="yes"/>
      <point x="351" y="496" type="line"/>
      <point x="408" y="508" type="line"/>
    </contour>
  </outline>
</glyph>
<glyph name="thorn" format="1">
  <advance width="444"/>
  <unicode hex="00FE"/>
  <outline>
    <contour>
      <point x="97" y="453" type="line"/>
      <point x="126" y="481"/>
      <point x="193" y="507"/>
      <point x="236" y="507" type="qcurve" smooth="yes"/>
      <point x="291" y="507"/>
      <point x="373" y="455"/>
      <point x="418" y="366"/>
      <point x="418" y="310" type="qcurve" smooth="yes"/>
      <point x="418" y="250"/>
      <point x="371" y="163"/>
      <point x="288" y="116"/>
      <point x="232" y="116" type="qcurve" smooth="yes"/>
      <point x="196" y="116"/>
      <point x="117" y="153"/>
      <point x="97" y="185" type="qcurve"/>
      <point x="97" y="0" type="line"/>
      <point x="41" y="0" type="line"/>
      <point x="41" y="698" type="line"/>
      <point x="97" y="698" type="line"/>
    </contour>
    <contour>
      <point x="231" y="457" type="qcurve" smooth="yes"/>
      <point x="196" y="457"/>
      <point x="137" y="428"/>
      <point x="101" y="369"/>
      <point x="98" y="323" type="qcurve"/>
      <point x="98" y="272"/>
      <point x="132" y="203"/>
      <point x="191" y="169"/>
      <point x="230" y="169" type="qcurve" smooth="yes"/>
      <point x="270" y="169"/>
      <point x="329" y="201"/>
      <point x="362" y="267"/>
      <point x="362" y="316" type="qcurve" smooth="yes"/>
      <point x="362" y="366"/>
      <point x="327" y="428"/>
      <point x="268" y="457"/>
    </contour>
  </outline>
</glyph>
<glyph name="ij" format="1">
  <advance width="465"/>
  <unicode hex="0133"/>
  <outline>
    <contour>
      <point x="75" y="708" type="qcurve" smooth="yes"/>
      <point x="88" y="708"/>
      <point x="108" y="688"/>
      <point x="108" y="674" type="qcurve" smooth="yes"/>
      <point x="108" y="661"/>
      <point x="88" y="641"/>
      <point x="75" y="641" type="qcurve" smooth="yes"/>
      <point x="61" y="641"/>
      <point x="41" y="661"/>
      <point x="41" y="674" type="qcurve" smooth="yes"/>
      <point x="41" y="688"/>
      <point x="61" y="708"/>
    </contour>
    <contour>
      <point x="418" y="674" type="qcurve" smooth="yes"/>
      <point x="418" y="661"/>
      <point x="398" y="641"/>
      <point x="384" y="641" type="qcurve" smooth="yes"/>
      <point x="371" y="641"/>
      <point x="351" y="661"/>
      <point x="351" y="674" type="qcurve" smooth="yes"/>
      <point x="351" y="688"/>
      <point x="371" y="707"/>
      <point x="384" y="707" type="qcurve" smooth="yes"/>
      <point x="398" y="707"/>
      <point x="418" y="688"/>
    </contour>
    <contour>
      <point x="359" y="500" type="line"/>
      <point x="415" y="500" type="line"/>
      <point x="415" y="-62" type="line" smooth="yes"/>
      <point x="415" y="-96"/>
      <point x="401" y="-146"/>
      <point x="384" y="-165" type="qcurve" smooth="yes"/>
      <point x="371" y="-179"/>
      <point x="334" y="-200"/>
      <point x="310" y="-208" type="qcurve"/>
      <point x="294" y="-165" type="line"/>
      <point x="309" y="-159"/>
      <point x="332" y="-141"/>
      <point x="340" y="-130" type="qcurve" smooth="yes"/>
      <point x="359" y="-104"/>
      <point x="359" y="-61" type="qcurve" smooth="yes"/>
      <point x="359" y="50" type="line"/>
      <point x="334" y="20"/>
      <point x="258" y="-9"/>
      <point x="220" y="-9" type="qcurve" smooth="yes"/>
      <point x="179" y="-9"/>
      <point x="114" y="11"/>
      <point x="69" y="52"/>
      <point x="46" y="115"/>
      <point x="46" y="157" type="qcurve" smooth="yes"/>
      <point x="46" y="499" type="line"/>
      <point x="102" y="499" type="line"/>
      <point x="102" y="161" type="line" smooth="yes"/>
      <point x="102" y="115"/>
      <point x="141" y="64"/>
      <point x="201" y="44"/>
      <point x="232" y="44" type="qcurve" smooth="yes"/>
      <point x="268" y="44"/>
      <point x="325" y="79"/>
      <point x="359" y="138"/>
      <point x="359" y="173" type="qcurve" smooth="yes"/>
    </contour>
  </outline>
</glyph>
<glyph name="Eng" format="1">
  <advance width="576"/>
  <unicode hex="014A"/>
  <outline>
    <contour>
      <point x="533" y="-62" type="line" smooth="yes"/>
      <point x="533" y="-96"/>
      <point x="518" y="-146"/>
      <point x="501" y="-165" type="qcurve" smooth="yes"/>
      <point x="488" y="-179"/>
      <point x="452" y="-200"/>
      <point x="427" y="-208" type="qcurve"/>
      <point x="412" y="-165" type="line"/>
      <point x="427" y="-159"/>
      <point x="450" y="-141"/>
      <point x="458" y="-130" type="qcurve" smooth="yes"/>
      <point x="468" y="-116"/>
      <point x="477" y="-82"/>
      <point x="477" y="-62" type="qcurve" smooth="yes"/>
      <point x="477" y="1" type="line"/>
      <point x="97" y="595" type="line"/>
      <point x="97" y="0" type="line"/>
      <point x="41" y="0" type="line"/>
      <point x="41" y="698" type="line"/>
      <point x="98" y="698" type="line"/>
      <point x="477" y="103" type="line"/>
      <point x="477" y="698" type="line"/>
      <point x="533" y="698" type="line"/>
    </contour>
  </outline>
</glyph>
<glyph name="eng" format="1">
  <advance width="442"/>
  <unicode hex="014B"/>
  <outline>
    <contour>
      <point x="406" y="-45" type="line" smooth="yes"/>
      <point x="406" y="-79"/>
      <point x="391" y="-129"/>
      <point x="374" y="-147" type="qcurve" smooth="yes"/>
      <point x="361" y="-161"/>
      <point x="326" y="-182"/>
      <point x="301" y="-190" type="qcurve"/>
      <point x="284" y="-147" type="line"/>
      <point x="299" y="-142"/>
      <point x="322" y="-125"/>
      <point x="330" y="-113" type="qcurve" smooth="yes"/>
      <point x="340" y="-100"/>
      <point x="350" y="-66"/>
      <point x="350" y="-44" type="qcurve" smooth="yes"/>
      <point x="350" y="342" type="line" smooth="yes"/>
      <point x="350" y="387"/>
      <point x="312" y="438"/>
      <point x="253" y="458"/>
      <point x="221" y="458" type="qcurve" smooth="yes"/>
      <point x="187" y="458"/>
      <point x="123" y="441"/>
      <point x="94" y="424" type="qcurve"/>
      <point x="94" y="0" type="line"/>
      <point x="38" y="0" type="line"/>
      <point x="38" y="498" type="line"/>
      <point x="94" y="498" type="line"/>
      <point x="94" y="465" type="line"/>
      <point x="123" y="485"/>
      <point x="195" y="508"/>
      <point x="232" y="508" type="qcurve" smooth="yes"/>
      <point x="273" y="508"/>
      <point x="338" y="487"/>
      <point x="383" y="445"/>
      <point x="406" y="384"/>
      <point x="406" y="345" type="qcurve" smooth="yes"/>
    </contour>
  </outline>
</glyph>
<glyph name="breve" format="1">
  <advance width="266"/>
  <unicode hex="02D8"/>
  <outline>
    <contour>
      <point x="245" y="702" type="line"/>
      <point x="245" y="695" type="line" smooth="yes"/>
      <point x="245" y="664"/>
      <point x="215" y="612"/>
      <point x="164" y="582"/>
      <point x="133" y="582" type="qcurve" smooth="yes"/>
      <point x="102" y="582"/>
      <point x="51" y="612"/>
      <point x="20" y="664"/>
      <point x="20" y="695" type="qcurve" smooth="yes"/>
      <point x="20" y="702" type="line"/>
      <point x="65" y="702" type="line"/>
      <point x="65" y="695" type="line" smooth="yes"/>
      <point x="65" y="667"/>
      <point x="105" y="627"/>
      <point x="133" y="627" type="qcurve" smooth="yes"/>
      <point x="162" y="627"/>
      <point x="200" y="667"/>
      <point x="200" y="695" type="qcurve" smooth="yes"/>
      <point x="200" y="702" type="line"/>
    </contour>
  </outline>
</glyph>
<glyph name="Theta" format="1">
  <advance width="490"/>
  <unicode hex="0398"/>
  <outline>
    <contour>
      <point x="34" y="506" type="line" smooth="yes"/>
      <point x="34" y="608"/>
      <point x="147" y="714"/>
      <point x="246" y="714" type="qcurve" smooth="yes"/>
      <point x="345" y="714"/>
      <point x="454" y="603"/>
      <point x="454" y="505" type="qcurve" smooth="yes"/>
      <point x="454" y="185" type="line" smooth="yes"/>
      <point x="454" y="124"/>
      <point x="401" y="37"/>
      <point x="307" y="-11"/>
      <point x="245" y="-11" type="qcurve" smooth="yes"/>
      <point x="186" y="-11"/>
      <point x="90" y="33"/>
      <point x="34" y="121"/>
      <point x="34" y="185" type="qcurve" smooth="yes"/>
    </contour>
    <contour>
      <point x="399" y="515" type="line" smooth="yes"/>
      <point x="399" y="588"/>
      <point x="314" y="661"/>
      <point x="243" y="661" type="qcurve" smooth="yes"/>
      <point x="174" y="661"/>
      <point x="90" y="588"/>
      <point x="90" y="515" type="qcurve" smooth="yes"/>
      <point x="90" y="358" type="line"/>
      <point x="399" y="358" type="line"/>
    </contour>
    <contour>
      <point x="243" y="42" type="qcurve" smooth="yes"/>
      <point x="289" y="42"/>
      <point x="359" y="73"/>
      <point x="399" y="137"/>
      <point x="399" y="186" type="qcurve" smooth="yes"/>
      <point x="399" y="301" type="line"/>
      <point x="90" y="301" type="line"/>
      <point x="90" y="186" type="line" smooth="yes"/>
      <point x="90" y="138"/>
      <point x="130" y="74"/>
      <point x="199" y="42"/>
    </contour>
  </outline>
</glyph>
<glyph name="Xi" format="1">
  <advance width="562"/>
  <unicode hex="039E"/>
  <outline>
    <contour>
      <point x="23" y="593" type="line"/>
      <point x="39" y="649"/>
      <point x="109" y="698"/>
      <point x="168" y="698" type="qcurve" smooth="yes"/>
      <point x="492" y="698" type="line"/>
      <point x="471" y="648" type="line"/>
      <point x="168" y="648" type="line" smooth="yes"/>
      <point x="129" y="648"/>
      <point x="79" y="613"/>
      <point x="66" y="577" type="qcurve"/>
    </contour>
    <contour>
      <point x="415" y="306" type="line"/>
      <point x="149" y="306" type="line"/>
      <point x="149" y="362" type="line"/>
      <point x="415" y="362" type="line"/>
    </contour>
    <contour>
      <point x="386" y="53" type="line" smooth="yes"/>
      <point x="425" y="53"/>
      <point x="476" y="88"/>
      <point x="489" y="122" type="qcurve"/>
      <point x="532" y="106" type="line"/>
      <point x="516" y="50"/>
      <point x="446" y="0"/>
      <point x="386" y="0" type="qcurve" smooth="yes"/>
      <point x="63" y="0" type="line"/>
      <point x="84" y="53" type="line"/>
    </contour>
  </outline>
</glyph>
<glyph name="Omegagreek" format="1">
  <advance width="580"/>
  <unicode hex="03A9"/>
    <anchor name="tonos" x="96" y="700"/>
  <outline>
    <contour>
      <point x="533" y="194" type="line" smooth="yes"/>
      <point x="533" y="145"/>
      <point x="498" y="72"/>
      <point x="460" y="50" type="qcurve"/>
      <point x="530" y="50" type="line"/>
      <point x="546" y="-1" type="line"/>
      <point x="318" y="-1" type="line"/>
      <point x="318" y="50" type="line"/>
      <point x="351" y="50"/>
      <point x="408" y="72"/>
      <point x="422" y="80" type="qcurve" smooth="yes"/>
      <point x="449" y="97"/>
      <point x="478" y="154"/>
      <point x="478" y="194" type="qcurve" smooth="yes"/>
      <point x="478" y="510" type="line" smooth="yes"/>
      <point x="478" y="576"/>
      <point x="405" y="652"/>
      <point x="346" y="652" type="qcurve" smooth="yes"/>
      <point x="234" y="652" type="line" smooth="yes"/>
      <point x="175" y="652"/>
      <point x="103" y="576"/>
      <point x="103" y="510" type="qcurve" smooth="yes"/>
      <point x="103" y="194" type="line" smooth="yes"/>
      <point x="103" y="164"/>
      <point x="119" y="116"/>
      <point x="135" y="98" type="qcurve" smooth="yes"/>
      <point x="148" y="82"/>
      <point x="216" y="50"/>
      <point x="261" y="50" type="qcurve"/>
      <point x="261" y="-1" type="line"/>
      <point x="33" y="-1" type="line"/>
      <point x="51" y="50" type="line"/>
      <point x="115" y="50" type="line"/>
      <point x="93" y="64"/>
      <point x="62" y="106"/>
      <point x="47" y="161"/>
      <point x="47" y="194" type="qcurve" smooth="yes"/>
      <point x="47" y="501" type="line" smooth="yes"/>
      <point x="47" y="593"/>
      <point x="140" y="704"/>
      <point x="234" y="704" type="qcurve" smooth="yes"/>
      <point x="346" y="704" type="line" smooth="yes"/>
      <point x="439" y="704"/>
      <point x="533" y="593"/>
      <point x="533" y="501" type="qcurve" smooth="yes"/>
    </contour>
    <contour>
      <point x="96" y="700" type="move" name="tonos"/>
    </contour>
  </outline>
</glyph>
<glyph name="delta" format="1">
  <advance width="431"/>
  <unicode hex="03B4"/>
  <outline>
    <contour>
      <point x="241" y="651" type="line" smooth="yes"/>
      <point x="223" y="651"/>
      <point x="196" y="638"/>
      <point x="180" y="614"/>
      <point x="180" y="598" type="qcurve" smooth="yes"/>
      <point x="180" y="578"/>
      <point x="194" y="554"/>
      <point x="217" y="535"/>
      <point x="230" y="524" type="qcurve" smooth="yes"/>
      <point x="233" y="522"/>
      <point x="252" y="507"/>
      <point x="276" y="491"/>
      <point x="284" y="485" type="qcurve" smooth="yes"/>
      <point x="307" y="469"/>
      <point x="347" y="434"/>
      <point x="368" y="402" type="qcurve" smooth="yes"/>
      <point x="385" y="376"/>
      <point x="400" y="311"/>
      <point x="400" y="279" type="qcurve" smooth="yes"/>
      <point x="400" y="183" type="line" smooth="yes"/>
      <point x="400" y="86"/>
      <point x="307" y="-11"/>
      <point x="215" y="-11" type="qcurve" smooth="yes"/>
      <point x="120" y="-11"/>
      <point x="28" y="92"/>
      <point x="28" y="183" type="qcurve" smooth="yes"/>
      <point x="28" y="308" type="line" smooth="yes"/>
      <point x="28" y="357"/>
      <point x="57" y="432"/>
      <point x="82" y="457" type="qcurve" smooth="yes"/>
      <point x="98" y="472"/>
      <point x="136" y="490"/>
      <point x="168" y="500"/>
      <point x="174" y="502" type="qcurve"/>
      <point x="165" y="510" type="line" smooth="yes"/>
      <point x="142" y="533"/>
      <point x="125" y="578"/>
      <point x="126" y="597" type="qcurve" smooth="yes"/>
      <point x="128" y="625"/>
      <point x="156" y="673"/>
      <point x="208" y="700"/>
      <point x="244" y="698" type="qcurve"/>
      <point x="356" y="698" type="line"/>
      <point x="334" y="651" type="line"/>
    </contour>
    <contour>
      <point x="344" y="294" type="line" smooth="yes"/>
      <point x="344" y="327"/>
      <point x="320" y="384"/>
      <point x="280" y="430"/>
      <point x="254" y="447" type="qcurve" smooth="yes"/>
      <point x="248" y="451"/>
      <point x="235" y="459"/>
      <point x="228" y="463" type="qcurve"/>
      <point x="228" y="463"/>
      <point x="192" y="459"/>
      <point x="142" y="441"/>
      <point x="120" y="418" type="qcurve" smooth="yes"/>
      <point x="102" y="400"/>
      <point x="84" y="344"/>
      <point x="84" y="308" type="qcurve" smooth="yes"/>
      <point x="84" y="173" type="line" smooth="yes"/>
      <point x="84" y="129"/>
      <point x="117" y="69"/>
      <point x="176" y="38"/>
      <point x="216" y="38" type="qcurve" smooth="yes"/>
      <point x="259" y="38"/>
      <point x="315" y="68"/>
      <point x="344" y="129"/>
      <point x="344" y="173" type="qcurve" smooth="yes"/>
    </contour>
  </outline>
</glyph>
<glyph name="kappa" format="1">
  <advance width="433"/>
  <unicode hex="03BA"/>
  <outline>
    <contour>
      <point x="314" y="117" type="line"/>
      <point x="340" y="83"/>
      <point x="385" y="47"/>
      <point x="405" y="47" type="qcurve"/>
      <point x="407" y="-1" type="line"/>
      <point x="370" y="-1"/>
      <point x="342" y="16" type="qcurve"/>
      <point x="328" y="27"/>
      <point x="304" y="45"/>
      <point x="296" y="54" type="qcurve" smooth="yes"/>
      <point x="289" y="63"/>
      <point x="267" y="91"/>
      <point x="253" y="110" type="qcurve" smooth="yes"/>
      <point x="149" y="253" type="line"/>
      <point x="94" y="197" type="line"/>
      <point x="94" y="0" type="line"/>
      <point x="38" y="0" type="line"/>
      <point x="38" y="510" type="line"/>
      <point x="94" y="497" type="line"/>
      <point x="94" y="273" type="line"/>
      <point x="301" y="499" type="line"/>
      <point x="375" y="499" type="line"/>
      <point x="187" y="295" type="line"/>
    </contour>
  </outline>
</glyph>
<glyph name="xi" format="1">
  <advance width="430"/>
  <unicode hex="03BE"/>
  <outline>
    <contour>
      <point x="359" y="649" type="line"/>
      <point x="359" y="649"/>
      <point x="332" y="649"/>
      <point x="292" y="649"/>
      <point x="252" y="649"/>
      <point x="238" y="649" type="qcurve" smooth="yes"/>
      <point x="195" y="649"/>
      <point x="148" y="591"/>
      <point x="149" y="543" type="qcurve"/>
      <point x="152" y="510"/>
      <point x="179" y="453"/>
      <point x="232" y="412"/>
      <point x="273" y="403" type="qcurve" smooth="yes"/>
      <point x="278" y="402"/>
      <point x="293" y="398"/>
      <point x="305" y="395"/>
      <point x="305" y="395" type="qcurve"/>
      <point x="288" y="346" type="line"/>
      <point x="288" y="346"/>
      <point x="227" y="358"/>
      <point x="180" y="358" type="qcurve" smooth="yes"/>
      <point x="162" y="358"/>
      <point x="117" y="342"/>
      <point x="84" y="296"/>
      <point x="84" y="251" type="qcurve" smooth="yes"/>
      <point x="84" y="175" type="line" smooth="yes"/>
      <point x="84" y="139"/>
      <point x="96" y="86"/>
      <point x="128" y="52"/>
      <point x="190" y="36"/>
      <point x="240" y="38" type="qcurve" smooth="yes"/>
      <point x="254" y="39"/>
      <point x="299" y="43"/>
      <point x="349" y="46"/>
      <point x="390" y="50"/>
      <point x="400" y="51" type="qcurve"/>
      <point x="400" y="-211" type="line"/>
      <point x="344" y="-197" type="line"/>
      <point x="344" y="-4" type="line"/>
      <point x="328" y="-5"/>
      <point x="291" y="-8"/>
      <point x="256" y="-9"/>
      <point x="243" y="-10" type="qcurve" smooth="yes"/>
      <point x="179" y="-12"/>
      <point x="82" y="16"/>
      <point x="28" y="95"/>
      <point x="28" y="168" type="qcurve" smooth="yes"/>
      <point x="28" y="254" type="line" smooth="yes"/>
      <point x="28" y="292"/>
      <point x="46" y="347"/>
      <point x="79" y="383"/>
      <point x="124" y="402"/>
      <point x="151" y="404" type="qcurve"/>
      <point x="154" y="404"/>
      <point x="158" y="404"/>
      <point x="159" y="404" type="qcurve"/>
      <point x="131" y="429"/>
      <point x="103" y="478"/>
      <point x="93" y="525"/>
      <point x="92" y="546" type="qcurve" smooth="yes"/>
      <point x="91" y="591"/>
      <point x="124" y="660"/>
      <point x="189" y="700"/>
      <point x="235" y="700" type="qcurve" smooth="yes"/>
      <point x="264" y="700"/>
      <point x="332" y="700"/>
      <point x="381" y="700"/>
      <point x="381" y="700" type="qcurve"/>
    </contour>
  </outline>
</glyph>
<glyph name="upsilon" format="1">
  <advance width="440"/>
  <unicode hex="03C5"/>
    <anchor name="tonos" x="220" y="545"/>
    <anchor name="top" x="220" y="545"/>
  <outline>
    <contour>
      <point x="404" y="184" type="line" smooth="yes"/>
      <point x="404" y="99"/>
      <point x="315" y="-10"/>
      <point x="222" y="-10" type="qcurve" smooth="yes"/>
      <point x="160" y="-10"/>
      <point x="76" y="42"/>
      <point x="34" y="130"/>
      <point x="34" y="184" type="qcurve" smooth="yes"/>
      <point x="34" y="499" type="line"/>
      <point x="91" y="499" type="line"/>
      <point x="91" y="174" type="line" smooth="yes"/>
      <point x="91" y="134"/>
      <point x="124" y="74"/>
      <point x="184" y="40"/>
      <point x="224" y="40" type="qcurve" smooth="yes"/>
      <point x="266" y="40"/>
      <point x="322" y="73"/>
      <point x="350" y="133"/>
      <point x="350" y="174" type="qcurve" smooth="yes"/>
      <point x="350" y="499" type="line"/>
      <point x="404" y="499" type="line"/>
    </contour>
    <contour>
      <point x="220" y="545" type="move" name="tonos"/>
    </contour>
    <contour>
      <point x="220" y="545" type="move" name="top"/>
    </contour>
  </outline>
</glyph>
<glyph name="omega" format="1">
  <advance width="594"/>
  <unicode hex="03C9"/>
    <anchor name="tonos" x="297" y="545"/>
  <outline>
    <contour>
      <point x="455" y="497" type="line"/>
      <point x="561" y="458"/>
      <point x="561" y="315" type="qcurve" smooth="yes"/>
      <point x="561" y="186" type="line" smooth="yes"/>
      <point x="561" y="87"/>
      <point x="482" y="-13"/>
      <point x="402" y="-13" type="qcurve" smooth="yes"/>
      <point x="378" y="-13"/>
      <point x="339" y="-1"/>
      <point x="308" y="22"/>
      <point x="297" y="40" type="qcurve"/>
      <point x="285" y="22"/>
      <point x="253" y="-1"/>
      <point x="215" y="-13"/>
      <point x="192" y="-13" type="qcurve" smooth="yes"/>
      <point x="112" y="-13"/>
      <point x="30" y="87"/>
      <point x="30" y="186" type="qcurve" smooth="yes"/>
      <point x="30" y="315" type="line" smooth="yes"/>
      <point x="30" y="386"/>
      <point x="85" y="478"/>
      <point x="139" y="497" type="qcurve"/>
      <point x="170" y="453" type="line"/>
      <point x="129" y="441"/>
      <point x="86" y="377"/>
      <point x="86" y="324" type="qcurve" smooth="yes"/>
      <point x="86" y="176" type="line" smooth="yes"/>
      <point x="86" y="107"/>
      <point x="146" y="40"/>
      <point x="188" y="40" type="qcurve" smooth="yes"/>
      <point x="231" y="40"/>
      <point x="266" y="97"/>
      <point x="269" y="156" type="qcurve"/>
      <point x="269" y="296" type="line"/>
      <point x="326" y="296" type="line"/>
      <point x="326" y="156" type="line" smooth="yes"/>
      <point x="326" y="97"/>
      <point x="362" y="40"/>
      <point x="404" y="40" type="qcurve" smooth="yes"/>
      <point x="447" y="40"/>
      <point x="505" y="107"/>
      <point x="505" y="176" type="qcurve" smooth="yes"/>
      <point x="505" y="324" type="line" smooth="yes"/>
      <point x="505" y="377"/>
      <point x="464" y="441"/>
      <point x="423" y="453" type="qcurve"/>
    </contour>
    <contour>
      <point x="297" y="545" type="move" name="tonos"/>
    </contour>
  </outline>
</glyph>
<glyph name="quotesinglbase" format="1">
  <advance width="139"/>
  <unicode hex="201A"/>
  <outline>
    <contour>
      <point x="34" y="-65" type="line"/>
      <point x="49" y="-45"/>
      <point x="63" y="-6"/>
      <point x="64" y="10" type="qcurve"/>
      <point x="53" y="12"/>
      <point x="37" y="30"/>
      <point x="37" y="43" type="qcurve" smooth="yes"/>
      <point x="37" y="57"/>
      <point x="57" y="76"/>
      <point x="70" y="76" type="qcurve" smooth="yes"/>
      <point x="84" y="76"/>
      <point x="103" y="58"/>
      <point x="104" y="43" type="qcurve"/>
      <point x="104" y="19"/>
      <point x="93" y="-19"/>
      <point x="76" y="-49"/>
      <point x="59" y="-70"/>
      <point x="51" y="-77" type="qcurve"/>
    </contour>
  </outline>
</glyph>
<glyph name="quotedblleft" format="1">
  <advance width="306"/>
  <unicode hex="201C"/>
  <outline>
    <contour>
      <point x="276" y="700" type="line"/>
      <point x="260" y="680"/>
      <point x="247" y="641"/>
      <point x="244" y="625" type="qcurve"/>
      <point x="257" y="622"/>
      <point x="273" y="604"/>
      <point x="273" y="592" type="qcurve" smooth="yes"/>
      <point x="273" y="578"/>
      <point x="253" y="559"/>
      <point x="239" y="559" type="qcurve" smooth="yes"/>
      <point x="226" y="559"/>
      <point x="206" y="577"/>
      <point x="206" y="592" type="qcurve" smooth="yes"/>
      <point x="206" y="615"/>
      <point x="217" y="654"/>
      <point x="233" y="684"/>
      <point x="252" y="705"/>
      <point x="259" y="712" type="qcurve"/>
    </contour>
    <contour>
      <point x="97" y="700" type="line"/>
      <point x="81" y="680"/>
      <point x="67" y="641"/>
      <point x="65" y="625" type="qcurve"/>
      <point x="78" y="622"/>
      <point x="94" y="604"/>
      <point x="94" y="592" type="qcurve" smooth="yes"/>
      <point x="94" y="578"/>
      <point x="74" y="559"/>
      <point x="60" y="559" type="qcurve" smooth="yes"/>
      <point x="47" y="559"/>
      <point x="27" y="577"/>
      <point x="27" y="592" type="qcurve" smooth="yes"/>
      <point x="27" y="615"/>
      <point x="38" y="654"/>
      <point x="54" y="684"/>
      <point x="72" y="705"/>
      <point x="79" y="712" type="qcurve"/>
    </contour>
  </outline>
</glyph>
<glyph name="bullet" format="1">
  <advance width="342"/>
  <unicode hex="2022"/>
  <outline>
    <contour>
      <point x="268" y="435" type="qcurve" smooth="yes"/>
      <point x="310" y="393"/>
      <point x="310" y="335" type="qcurve" smooth="yes"/>
      <point x="310" y="307"/>
      <point x="289" y="257"/>
      <point x="268" y="237" type="qcurve"/>
      <point x="228" y="195"/>
      <point x="169" y="195" type="qcurve" smooth="yes"/>
      <point x="112" y="195"/>
      <point x="70" y="237" type="qcurve" smooth="yes"/>
      <point x="29" y="277"/>
      <point x="29" y="335" type="qcurve" smooth="yes"/>
      <point x="29" y="394"/>
      <point x="70" y="435" type="qcurve" smooth="yes"/>
      <point x="113" y="476"/>
      <point x="169" y="476" type="qcurve" smooth="yes"/>
      <point x="227" y="476"/>
    </contour>
  </outline>
</glyph>
<glyph name="ff" format="1">
  <advance width="494"/>
  <unicode hex="FB00"/>
  <outline>
    <contour>
      <point x="453" y="632" type="line"/>
      <point x="429" y="644"/>
      <point x="386" y="644"/>
      <point x="366" y="631" type="qcurve" smooth="yes"/>
      <point x="347" y="618"/>
      <point x="328" y="577"/>
      <point x="328" y="548" type="qcurve" smooth="yes"/>
      <point x="328" y="498" type="line"/>
      <point x="442" y="498" type="line"/>
      <point x="418" y="446" type="line"/>
      <point x="328" y="446" type="line"/>
      <point x="328" y="0" type="line"/>
      <point x="271" y="0" type="line"/>
      <point x="271" y="560" type="line" smooth="yes"/>
      <point x="271" y="576"/>
      <point x="278" y="604"/>
      <point x="283" y="618" type="qcurve"/>
      <point x="262" y="632"/>
      <point x="220" y="650"/>
      <point x="201" y="651" type="qcurve"/>
      <point x="173" y="654"/>
      <point x="125" y="637"/>
      <point x="95" y="590"/>
      <point x="95" y="548" type="qcurve" smooth="yes"/>
      <point x="95" y="498" type="line"/>
      <point x="209" y="498" type="line"/>
      <point x="186" y="446" type="line"/>
      <point x="95" y="446" type="line"/>
      <point x="95" y="0" type="line"/>
      <point x="39" y="0" type="line"/>
      <point x="39" y="560" type="line" smooth="yes"/>
      <point x="39" y="602"/>
      <point x="76" y="667"/>
      <point x="140" y="704"/>
      <point x="180" y="704" type="qcurve" smooth="yes"/>
      <point x="217" y="704"/>
      <point x="283" y="683"/>
      <point x="313" y="662" type="qcurve"/>
      <point x="333" y="680"/>
      <point x="382" y="698"/>
      <point x="407" y="698" type="qcurve" smooth="yes"/>
      <point x="424" y="698"/>
      <point x="461" y="689"/>
      <point x="473" y="681" type="qcurve"/>
    </contour>
  </outline>
</glyph>
